<?xml version="1.0" standalone="no"?>
<!DOCTYPE svg PUBLIC "-//W3C//DTD SVG 20010904//EN"
 "http://www.w3.org/TR/2001/REC-SVG-20010904/DTD/svg10.dtd">
<svg version="1.0" xmlns="http://www.w3.org/2000/svg"
 width="260.000000pt" height="260.000000pt" viewBox="0 0 260.000000 260.000000"
 preserveAspectRatio="xMidYMid meet">
<metadata>
Created by potrace 1.14, written by Peter Selinger 2001-2017
</metadata>
<g transform="translate(0.000000,260.000000) scale(0.100000,-0.100000)"
fill="#000000" stroke="none">
<path d="M0 1300 l0 -1300 1300 0 1300 0 0 1300 0 1300 -1300 0 -1300 0 0
-1300z m2128 -365 c35 -8 76 -22 93 -30 l29 -16 -19 -38 -20 -38 -53 26 c-70
34 -187 42 -255 16 -62 -24 -121 -79 -149 -140 -19 -39 -24 -67 -24 -130 0
-94 21 -149 78 -208 62 -65 104 -82 202 -82 75 0 92 4 147 32 l62 31 16 -25
c9 -13 14 -31 11 -39 -9 -22 -106 -62 -181 -74 -277 -44 -492 190 -421 458 55
205 254 311 484 257z m-1423 -12 c3 -10 55 -146 115 -303 60 -157 118 -309
129 -338 l21 -52 -48 0 -47 0 -39 105 -38 106 -147 -3 -146 -3 -36 -100 -37
-100 -46 -3 c-44 -3 -46 -2 -37 20 5 13 63 165 129 338 66 173 123 323 127
333 5 12 18 17 50 17 32 0 45 -5 50 -17z m623 -340 l2 -353 -45 0 -45 0 0 356
0 355 43 -3 42 -3 3 -352z"/>
<path d="M646 810 c-19 -49 -106 -283 -106 -286 0 -2 51 -4 114 -4 l114 0 -54
143 c-30 78 -56 147 -58 152 -2 6 -6 3 -10 -5z"/>
</g>
</svg>
