<svg width="48" height="48" viewBox="0 0 48 48" fill="none" xmlns="http://www.w3.org/2000/svg">
<path d="M12.3328 34.9601C11.747 34.3743 11.747 33.4245 12.3328 32.8388L32.8389 12.3327C33.4246 11.7469 34.3744 11.7469 34.9602 12.3327C35.546 12.9184 35.546 13.8682 34.9602 14.454L14.4541 34.9601C13.8683 35.5459 12.9185 35.5459 12.3328 34.9601Z" fill="#FAFAFA"/>
<path d="M13.0399 12.3331C13.6257 11.7473 14.5754 11.7473 15.1612 12.3331L35.6673 32.8392C36.2531 33.425 36.2531 34.3748 35.6673 34.9605C35.0815 35.5463 34.1317 35.5463 33.546 34.9605L13.0399 14.4544C12.4541 13.8687 12.4541 12.9189 13.0399 12.3331Z" fill="#FAFAFA"/>
</svg>
