<svg width="68" height="72" viewBox="0 0 68 72" fill="none" xmlns="http://www.w3.org/2000/svg">
<path fill-rule="evenodd" clip-rule="evenodd" d="M43.3664 53.538C41.721 51.8927 41.721 49.225 43.3664 47.5796C45.0117 45.9342 47.6794 45.9342 49.3248 47.5796L66.1777 64.4326C67.8231 66.0779 67.8231 68.7456 66.1777 70.391C64.5323 72.0363 61.8647 72.0363 60.2193 70.391L43.3664 53.538Z" fill="#0A0A0A"/>
<path fill-rule="evenodd" clip-rule="evenodd" d="M0 29.4926C0 45.781 13.2043 58.9853 29.4926 58.9853C45.781 58.9853 58.9853 45.781 58.9853 29.4926C58.9853 13.2043 45.781 0 29.4926 0C13.2043 0 0 13.2043 0 29.4926ZM50.5588 29.4926C50.5588 41.1272 41.1272 50.5588 29.4926 50.5588C17.8581 50.5588 8.42647 41.1272 8.42647 29.4926C8.42647 17.8581 17.8581 8.42647 29.4926 8.42647C41.1272 8.42647 50.5588 17.8581 50.5588 29.4926Z" fill="#0A0A0A"/>
</svg>
